<svg xmlns="http://www.w3.org/2000/svg" xmlns:xlink="http://www.w3.org/1999/xlink" version="1.1" id="Layer_3" x="0px" y="0px" viewBox="0 0 200 200" enable-background="new 0 0 200 200" xml:space="preserve"><g><g><polygon fill="#E9ECEE" points="50.5,120 45.1,137.4 81.8,137.4 89.3,157.1 121.6,157.1 127.9,138.8 165.7,137.4 144.7,74.1     139.2,74.1 127.4,124.7 107.8,133.1   "/></g></g><g><g><g><path fill="#C2CED8" d="M33.2,142.5c-0.1,0-0.2,0-0.4-0.1c-0.5-0.2-0.8-0.8-0.6-1.3l7-18.7c0.2-0.5,0.8-0.8,1.3-0.6     s0.8,0.8,0.6,1.3l-7,18.7C34,142.2,33.6,142.5,33.2,142.5z"/></g></g><g><g><path fill="#C2CED8" d="M177.7,142.5c-0.4,0-0.8-0.3-0.9-0.7l-26-74.6h-4.5c-0.6,0-1-0.4-1-1s0.4-1,1-1h5.2     c0.4,0,0.8,0.3,0.9,0.7l26.2,75.3c0.2,0.5-0.1,1.1-0.6,1.3C177.9,142.4,177.8,142.5,177.7,142.5z"/></g></g><g><g><path fill="#C2CED8" d="M119.4,158.9H91.5c-3.1,0-4.3-2.7-5-4.7l-3-12.3c0-0.2-0.8-3.5-3.4-3.5H45.1c-0.3,0-0.6-0.2-0.8-0.4     c-0.2-0.3-0.2-0.6-0.1-0.9l4.2-12.1c0.2-0.5,0.8-0.8,1.3-0.6c0.5,0.2,0.8,0.8,0.6,1.3l-3.8,10.7h33.5c3.4,0,5,3.3,5.4,5l3,12.2     c0.7,2.3,1.6,3.3,3.1,3.3h27.9c1.5,0,1.9-0.5,3.1-3.3l2.9-11.7c0.1-2,1.6-5.4,6.7-5.4h32.3l-20.6-62c-0.2-0.5,0.1-1.1,0.6-1.3     c0.5-0.2,1.1,0.1,1.3,0.6l21,63.3c0.1,0.3,0,0.6-0.1,0.9c-0.2,0.3-0.5,0.4-0.8,0.4H132c-4.4,0-4.6,3.3-4.7,3.6c0,0.1,0,0.1,0,0.2     l-2.9,11.9c0,0,0,0.1,0,0.1C123.2,157.1,122.2,158.9,119.4,158.9z"/></g></g><g><g><path fill="#C2CED8" d="M173.6,175.6H37.2c-2.8,0-5-2.3-5-5v-29.1c0-0.6,0.4-1,1-1s1,0.4,1,1v29.1c0,1.7,1.4,3,3,3h136.4     c1.7,0,3-1.4,3-3v-29.1c0-0.6,0.4-1,1-1s1,0.4,1,1v29.1C178.7,173.3,176.4,175.6,173.6,175.6z"/></g></g><g><g><path fill="none" stroke="#C2CED8" stroke-width="2" stroke-linecap="round" stroke-linejoin="round" stroke-miterlimit="10" d="     M83.7,141.5"/></g></g><g><g><path fill="none" stroke="#C2CED8" stroke-width="2" stroke-linecap="round" stroke-linejoin="round" stroke-miterlimit="10" d="     M33.2,141.5"/></g></g><g><g><path fill="none" stroke="#C2CED8" stroke-width="2" stroke-linecap="round" stroke-linejoin="round" stroke-miterlimit="10" d="     M177.7,141.5"/></g></g><g><g><path fill="none" stroke="#C2CED8" stroke-width="2" stroke-linecap="round" stroke-linejoin="round" stroke-miterlimit="10" d="     M127.1,141.5"/></g></g></g><g><g><path fill="#C2CED8" d="M108.9,134.3c-0.1,0-0.1,0-0.2,0L33,117c-0.5-0.1-0.9-0.7-0.8-1.2L56.4,7.4c0.1-0.5,0.6-0.9,1.2-0.8    l91.8,20.3c0.3,0.1,0.5,0.2,0.6,0.4s0.2,0.5,0.1,0.8l-21.8,96.8c-0.1,0.3-0.3,0.6-0.6,0.7l-18.6,8.7    C109.2,134.3,109,134.3,108.9,134.3z M34.4,115.3l74.4,17l17.8-8.3L148,28.6L58.2,8.8L34.4,115.3z"/></g></g><g><g><path fill="#C2CED8" d="M108.9,134.3c-0.1,0-0.2,0-0.3,0c-0.5-0.2-0.8-0.7-0.6-1.3l4.1-12.7c0.2-0.5,0.7-0.8,1.2-0.7l14.4,4.1    c0.5,0.2,0.8,0.7,0.7,1.2c-0.2,0.5-0.7,0.8-1.2,0.7l-13.5-3.8l-3.8,11.8C109.7,134.1,109.3,134.3,108.9,134.3z"/></g></g><g><g><path fill="#C3CFD8" d="M180.7,129.6c-0.1,0-0.3,0-0.4-0.1c-0.5-0.2-0.8-0.8-0.5-1.3c0.3-0.6,0.5-1.2,0.7-1.8    c0.2-0.5,0.8-0.8,1.3-0.6c0.5,0.2,0.8,0.8,0.6,1.3c-0.2,0.6-0.5,1.3-0.8,1.9C181.4,129.3,181.1,129.6,180.7,129.6z M182.8,123.9    c-0.1,0-0.2,0-0.3-0.1c-0.5-0.2-0.8-0.7-0.6-1.3c0.2-0.6,0.4-1.2,0.6-1.9c0.2-0.5,0.7-0.8,1.3-0.7c0.5,0.2,0.8,0.7,0.7,1.3    c-0.2,0.6-0.4,1.3-0.6,1.9C183.6,123.7,183.2,123.9,182.8,123.9z M184.5,118.2c-0.1,0-0.2,0-0.3,0c-0.5-0.1-0.9-0.7-0.7-1.2    c0.2-0.6,0.3-1.3,0.5-1.9c0.1-0.5,0.7-0.9,1.2-0.7c0.5,0.1,0.9,0.7,0.7,1.2c-0.2,0.7-0.3,1.3-0.5,2    C185.3,117.9,184.9,118.2,184.5,118.2z M185.8,112.3c-0.1,0-0.1,0-0.2,0c-0.5-0.1-0.9-0.6-0.8-1.2c0.1-0.6,0.2-1.3,0.3-1.9    c0.1-0.5,0.6-0.9,1.1-0.8c0.5,0.1,0.9,0.6,0.8,1.1c-0.1,0.7-0.2,1.3-0.4,2C186.7,112,186.3,112.3,185.8,112.3z M186.7,106.4    c0,0-0.1,0-0.1,0c-0.5-0.1-0.9-0.6-0.9-1.1c0.1-0.7,0.1-1.3,0.2-2c0.1-0.5,0.5-1,1.1-0.9c0.5,0.1,1,0.5,0.9,1.1    c-0.1,0.7-0.1,1.3-0.2,2C187.6,106,187.2,106.4,186.7,106.4z M187.2,100.4C187.2,100.4,187.2,100.4,187.2,100.4c-0.6,0-1-0.5-1-1    c0-0.7,0.1-1.3,0.1-2c0-0.5,0.5-1,1-1c0,0,0,0,0,0c0.6,0,1,0.5,1,1c0,0.7,0,1.3-0.1,2C188.2,100,187.7,100.4,187.2,100.4z     M187.3,94.4c-0.5,0-1-0.4-1-1c0-0.7,0-1.3-0.1-2c0-0.6,0.4-1,1-1c0.5-0.1,1,0.4,1,1c0,0.7,0,1.3,0.1,2    C188.3,94,187.9,94.4,187.3,94.4C187.3,94.4,187.3,94.4,187.3,94.4z M187,88.4c-0.5,0-1-0.4-1-0.9c-0.1-0.7-0.1-1.3-0.2-2    c-0.1-0.5,0.3-1,0.9-1.1c0.6-0.1,1,0.3,1.1,0.9c0.1,0.7,0.1,1.3,0.2,2C188,87.9,187.6,88.4,187,88.4C187,88.4,187,88.4,187,88.4z     M186.2,82.5c-0.5,0-0.9-0.4-1-0.8c-0.1-0.7-0.2-1.3-0.3-1.9c-0.1-0.5,0.3-1.1,0.8-1.2c0.6-0.1,1.1,0.3,1.2,0.8    c0.1,0.7,0.2,1.3,0.3,2c0.1,0.5-0.3,1.1-0.8,1.1C186.3,82.5,186.3,82.5,186.2,82.5z M185.1,76.6c-0.5,0-0.9-0.3-1-0.8    c-0.1-0.6-0.3-1.3-0.5-1.9c-0.1-0.5,0.2-1.1,0.7-1.2c0.5-0.1,1.1,0.2,1.2,0.7c0.2,0.7,0.3,1.3,0.5,2c0.1,0.5-0.2,1.1-0.8,1.2    C185.3,76.6,185.2,76.6,185.1,76.6z M183.6,70.8c-0.4,0-0.8-0.3-1-0.7c-0.2-0.6-0.4-1.3-0.6-1.9c-0.2-0.5,0.1-1.1,0.6-1.3    s1.1,0.1,1.3,0.6c0.2,0.6,0.4,1.3,0.6,1.9c0.2,0.5-0.1,1.1-0.7,1.2C183.8,70.8,183.7,70.8,183.6,70.8z M181.6,65.1    c-0.4,0-0.8-0.2-0.9-0.6c-0.2-0.6-0.5-1.2-0.7-1.8c-0.2-0.5,0-1.1,0.6-1.3c0.5-0.2,1.1,0,1.3,0.6c0.3,0.6,0.5,1.2,0.7,1.9    c0.2,0.5-0.1,1.1-0.6,1.3C181.9,65.1,181.8,65.1,181.6,65.1z M179.3,59.6c-0.4,0-0.7-0.2-0.9-0.6c-0.3-0.6-0.6-1.2-0.8-1.8    c-0.2-0.5,0-1.1,0.5-1.3c0.5-0.2,1.1,0,1.3,0.5c0.3,0.6,0.6,1.2,0.9,1.8c0.2,0.5,0,1.1-0.5,1.3C179.6,59.6,179.5,59.6,179.3,59.6z     M176.6,54.3c-0.4,0-0.7-0.2-0.9-0.5c-0.3-0.6-0.6-1.2-1-1.7c-0.3-0.5-0.1-1.1,0.4-1.4c0.5-0.3,1.1-0.1,1.4,0.4    c0.3,0.6,0.7,1.2,1,1.8c0.3,0.5,0.1,1.1-0.4,1.4C177,54.2,176.8,54.3,176.6,54.3z M173.6,49.1c-0.3,0-0.7-0.2-0.8-0.5    c-0.4-0.6-0.7-1.1-1.1-1.7c-0.3-0.5-0.2-1.1,0.3-1.4c0.5-0.3,1.1-0.2,1.4,0.3c0.4,0.6,0.7,1.1,1.1,1.7c0.3,0.5,0.2,1.1-0.3,1.4    C174,49,173.8,49.1,173.6,49.1z M170.2,44.2c-0.3,0-0.6-0.1-0.8-0.4c-0.4-0.5-0.8-1.1-1.2-1.6c-0.3-0.4-0.3-1.1,0.2-1.4    c0.4-0.3,1.1-0.3,1.4,0.2c0.4,0.5,0.8,1.1,1.2,1.6c0.3,0.4,0.2,1.1-0.2,1.4C170.6,44.1,170.4,44.2,170.2,44.2z M166.5,39.5    c-0.3,0-0.6-0.1-0.8-0.4c-0.4-0.5-0.9-1-1.3-1.5c-0.4-0.4-0.3-1,0.1-1.4c0.4-0.4,1-0.3,1.4,0.1c0.4,0.5,0.9,1,1.3,1.5    c0.4,0.4,0.3,1.1-0.1,1.4C166.9,39.4,166.7,39.5,166.5,39.5z M162.4,35c-0.3,0-0.5-0.1-0.7-0.3c-0.5-0.5-0.9-0.9-1.4-1.4    c-0.4-0.4-0.4-1,0-1.4c0.4-0.4,1-0.4,1.4,0c0.5,0.5,1,0.9,1.4,1.4c0.4,0.4,0.4,1,0,1.4C162.9,34.9,162.7,35,162.4,35z M158.1,30.9    c-0.2,0-0.5-0.1-0.7-0.3c-0.5-0.4-1-0.9-1.5-1.3c-0.4-0.4-0.5-1-0.1-1.4c0.4-0.4,1-0.5,1.4-0.1c0.5,0.4,1,0.9,1.5,1.3    c0.4,0.4,0.4,1,0.1,1.4C158.7,30.8,158.4,30.9,158.1,30.9z M153.5,27c-0.2,0-0.4-0.1-0.6-0.2c-0.5-0.4-1-0.8-1.6-1.2    c-0.4-0.3-0.5-1-0.2-1.4c0.3-0.4,1-0.5,1.4-0.2c0.5,0.4,1.1,0.8,1.6,1.2c0.4,0.3,0.5,1,0.2,1.4C154.1,26.9,153.8,27,153.5,27z     M148.6,23.5c-0.2,0-0.4-0.1-0.6-0.2c-0.5-0.4-1.1-0.7-1.7-1.1c-0.5-0.3-0.6-0.9-0.3-1.4c0.3-0.5,0.9-0.6,1.4-0.3    c0.6,0.4,1.1,0.7,1.7,1.1c0.5,0.3,0.6,0.9,0.3,1.4C149.3,23.4,149,23.5,148.6,23.5z M143.6,20.3c-0.2,0-0.3,0-0.5-0.1    c-0.6-0.3-1.1-0.7-1.7-1c-0.5-0.3-0.7-0.9-0.4-1.4c0.3-0.5,0.9-0.7,1.4-0.4c0.6,0.3,1.2,0.7,1.8,1c0.5,0.3,0.6,0.9,0.4,1.4    C144.2,20.2,143.9,20.3,143.6,20.3z M138.2,17.5c-0.1,0-0.3,0-0.4-0.1c-0.6-0.3-1.2-0.6-1.8-0.9c-0.5-0.2-0.7-0.8-0.5-1.3    s0.8-0.7,1.3-0.5c0.6,0.3,1.2,0.6,1.8,0.9c0.5,0.2,0.7,0.8,0.5,1.3C139,17.3,138.6,17.5,138.2,17.5z M132.8,15    c-0.1,0-0.3,0-0.4-0.1c-0.6-0.2-1.2-0.5-1.8-0.7c-0.5-0.2-0.8-0.8-0.6-1.3c0.2-0.5,0.8-0.8,1.3-0.6c0.6,0.2,1.3,0.5,1.9,0.7    c0.5,0.2,0.8,0.8,0.6,1.3C133.5,14.8,133.2,15,132.8,15z M127.1,13c-0.1,0-0.2,0-0.3,0c-0.6-0.2-1.3-0.4-1.9-0.6    c-0.5-0.2-0.8-0.7-0.7-1.2c0.2-0.5,0.7-0.8,1.2-0.7c0.6,0.2,1.3,0.4,1.9,0.6c0.5,0.2,0.8,0.7,0.6,1.3    C127.9,12.7,127.5,13,127.1,13z M121.4,11.3c-0.1,0-0.2,0-0.2,0c-0.6-0.2-1.3-0.3-1.9-0.5c-0.5-0.1-0.9-0.7-0.8-1.2    s0.7-0.9,1.2-0.8c0.7,0.2,1.3,0.3,2,0.5c0.5,0.1,0.9,0.7,0.7,1.2C122.2,11,121.8,11.3,121.4,11.3z M83.7,10.1    c-0.5,0-0.9-0.3-1-0.8c-0.1-0.5,0.3-1.1,0.8-1.2c0.7-0.1,1.3-0.2,2-0.3c0.6-0.1,1.1,0.3,1.1,0.8c0.1,0.5-0.3,1.1-0.8,1.1    c-0.7,0.1-1.3,0.2-1.9,0.3C83.8,10.1,83.7,10.1,83.7,10.1z M115.5,10c-0.1,0-0.1,0-0.2,0c-0.6-0.1-1.3-0.2-1.9-0.3    c-0.5-0.1-0.9-0.6-0.8-1.1c0.1-0.5,0.6-0.9,1.1-0.8c0.7,0.1,1.3,0.2,2,0.3c0.5,0.1,0.9,0.6,0.8,1.2C116.4,9.7,116,10,115.5,10z     M89.6,9.2c-0.5,0-0.9-0.4-1-0.9c-0.1-0.5,0.3-1,0.9-1.1c0.7-0.1,1.3-0.1,2-0.2c0.6-0.1,1,0.4,1.1,0.9S92.2,9,91.7,9    c-0.7,0.1-1.3,0.1-2,0.2C89.7,9.2,89.6,9.2,89.6,9.2z M109.6,9.2c0,0-0.1,0-0.1,0c-0.7-0.1-1.3-0.1-2-0.2c-0.5,0-1-0.5-0.9-1.1    s0.5-1,1.1-0.9c0.7,0.1,1.3,0.1,2,0.2c0.5,0.1,0.9,0.6,0.9,1.1C110.5,8.8,110.1,9.2,109.6,9.2z M95.6,8.7c-0.5,0-1-0.4-1-1    c0-0.6,0.4-1,1-1c0.7,0,1.3-0.1,2-0.1c0.5,0,1,0.4,1,1s-0.4,1-1,1C96.9,8.7,96.3,8.7,95.6,8.7C95.6,8.7,95.6,8.7,95.6,8.7z     M103.6,8.7C103.6,8.7,103.6,8.7,103.6,8.7c-0.7,0-1.4,0-2-0.1c-0.6,0-1-0.5-1-1c0-0.6,0.5-1,1-1c0.7,0,1.3,0,2,0.1    c0.6,0,1,0.5,1,1C104.6,8.3,104.1,8.7,103.6,8.7z"/></g></g><g><g><path fill="#C3CFD8" d="M28.2,146.5c-0.3,0-0.6-0.1-0.8-0.4c-0.4-0.6-0.8-1.1-1.1-1.7c-0.3-0.5-0.2-1.1,0.3-1.4    c0.5-0.3,1.1-0.2,1.4,0.3c0.4,0.5,0.7,1.1,1.1,1.6c0.3,0.5,0.2,1.1-0.2,1.4C28.7,146.5,28.4,146.5,28.2,146.5z M25,141.5    c-0.3,0-0.7-0.2-0.9-0.5c-0.3-0.6-0.7-1.2-1-1.7c-0.3-0.5-0.1-1.1,0.4-1.4c0.5-0.3,1.1-0.1,1.4,0.4c0.3,0.6,0.7,1.1,1,1.7    c0.3,0.5,0.1,1.1-0.3,1.4C25.3,141.4,25.1,141.5,25,141.5z M22,136.3c-0.4,0-0.7-0.2-0.9-0.5c-0.3-0.6-0.6-1.2-0.9-1.8    c-0.2-0.5,0-1.1,0.5-1.3c0.5-0.2,1.1,0,1.3,0.5c0.3,0.6,0.6,1.2,0.9,1.8c0.3,0.5,0.1,1.1-0.4,1.3C22.3,136.2,22.2,136.3,22,136.3z     M19.5,130.8c-0.4,0-0.8-0.2-0.9-0.6c-0.3-0.6-0.5-1.2-0.8-1.9c-0.2-0.5,0-1.1,0.6-1.3s1.1,0,1.3,0.6c0.2,0.6,0.5,1.2,0.8,1.8    c0.2,0.5,0,1.1-0.5,1.3C19.7,130.8,19.6,130.8,19.5,130.8z M17.3,125.3c-0.4,0-0.8-0.3-0.9-0.7c-0.2-0.6-0.4-1.3-0.7-1.9    c-0.2-0.5,0.1-1.1,0.6-1.3c0.5-0.2,1.1,0.1,1.3,0.6c0.2,0.6,0.4,1.2,0.6,1.9c0.2,0.5-0.1,1.1-0.6,1.3    C17.5,125.2,17.4,125.3,17.3,125.3z M15.5,119.5c-0.4,0-0.8-0.3-1-0.7c-0.2-0.6-0.4-1.3-0.5-2c-0.1-0.5,0.2-1.1,0.7-1.2    c0.5-0.1,1.1,0.2,1.2,0.7c0.2,0.6,0.3,1.3,0.5,1.9c0.1,0.5-0.2,1.1-0.7,1.2C15.6,119.5,15.6,119.5,15.5,119.5z M14.1,113.7    c-0.5,0-0.9-0.3-1-0.8c-0.1-0.7-0.3-1.3-0.4-2c-0.1-0.5,0.3-1.1,0.8-1.2c0.5-0.1,1.1,0.3,1.2,0.8c0.1,0.6,0.2,1.3,0.4,1.9    c0.1,0.5-0.2,1.1-0.8,1.2C14.2,113.7,14.1,113.7,14.1,113.7z M13.1,107.8c-0.5,0-0.9-0.4-1-0.9c-0.1-0.7-0.2-1.3-0.2-2    c-0.1-0.5,0.3-1,0.9-1.1c0.6-0.1,1,0.3,1.1,0.9c0.1,0.7,0.2,1.3,0.2,2c0.1,0.5-0.3,1.1-0.9,1.1C13.2,107.8,13.1,107.8,13.1,107.8z     M12.5,101.8c-0.5,0-1-0.4-1-0.9c0-0.7-0.1-1.3-0.1-2c0-0.6,0.4-1,1-1c0.6,0,1,0.4,1,1c0,0.7,0.1,1.3,0.1,2    C13.5,101.3,13.1,101.8,12.5,101.8C12.5,101.8,12.5,101.8,12.5,101.8z M12.3,95.8C12.3,95.8,12.3,95.8,12.3,95.8c-0.6,0-1-0.5-1-1    c0-0.7,0-1.4,0-2c0-0.6,0.5-1,1-1c0.6,0,1,0.5,1,1c0,0.7,0,1.3,0,2C13.3,95.4,12.8,95.8,12.3,95.8z M12.5,89.9    C12.5,89.9,12.5,89.9,12.5,89.9c-0.6,0-1-0.5-1-1.1c0-0.7,0.1-1.3,0.2-2c0.1-0.5,0.5-1,1.1-0.9c0.5,0.1,1,0.5,0.9,1.1    c-0.1,0.7-0.1,1.3-0.2,2C13.5,89.5,13,89.9,12.5,89.9z M13.1,83.9c0,0-0.1,0-0.1,0c-0.5-0.1-0.9-0.6-0.9-1.1    c0.1-0.7,0.2-1.3,0.3-2c0.1-0.5,0.6-0.9,1.1-0.8c0.5,0.1,0.9,0.6,0.8,1.1c-0.1,0.7-0.2,1.3-0.3,2C14.1,83.5,13.6,83.9,13.1,83.9z     M14.2,78c-0.1,0-0.1,0-0.2,0c-0.5-0.1-0.9-0.6-0.8-1.2c0.1-0.7,0.3-1.3,0.4-2c0.1-0.5,0.7-0.9,1.2-0.7c0.5,0.1,0.9,0.7,0.7,1.2    c-0.2,0.6-0.3,1.3-0.4,1.9C15.1,77.6,14.6,78,14.2,78z M15.6,72.1c-0.1,0-0.2,0-0.3,0c-0.5-0.2-0.8-0.7-0.7-1.2    c0.2-0.7,0.4-1.3,0.6-1.9c0.2-0.5,0.7-0.8,1.3-0.7c0.5,0.2,0.8,0.7,0.7,1.3c-0.2,0.6-0.4,1.3-0.6,1.9    C16.5,71.9,16.1,72.1,15.6,72.1z M17.5,66.4c-0.1,0-0.2,0-0.3-0.1c-0.5-0.2-0.8-0.8-0.6-1.3c0.2-0.6,0.5-1.3,0.7-1.9    c0.2-0.5,0.8-0.8,1.3-0.6c0.5,0.2,0.8,0.8,0.6,1.3c-0.2,0.6-0.5,1.2-0.7,1.9C18.3,66.2,17.9,66.4,17.5,66.4z M19.7,60.9    c-0.1,0-0.3,0-0.4-0.1c-0.5-0.2-0.7-0.8-0.5-1.3c0.3-0.6,0.6-1.2,0.8-1.8c0.2-0.5,0.8-0.7,1.3-0.5c0.5,0.2,0.7,0.8,0.5,1.3    c-0.3,0.6-0.6,1.2-0.8,1.8C20.4,60.6,20.1,60.9,19.7,60.9z M22.3,55.4c-0.2,0-0.3,0-0.5-0.1c-0.5-0.3-0.7-0.9-0.4-1.4    c0.3-0.6,0.6-1.2,1-1.8c0.3-0.5,0.9-0.7,1.4-0.4c0.5,0.3,0.7,0.9,0.4,1.4c-0.3,0.6-0.6,1.2-0.9,1.7C23,55.3,22.7,55.4,22.3,55.4z     M25.3,50.2c-0.2,0-0.4,0-0.5-0.1c-0.5-0.3-0.6-0.9-0.3-1.4c0.4-0.6,0.7-1.1,1.1-1.7c0.3-0.5,0.9-0.6,1.4-0.3    c0.5,0.3,0.6,0.9,0.3,1.4c-0.4,0.6-0.7,1.1-1.1,1.7C25.9,50.1,25.6,50.2,25.3,50.2z M28.6,45.2c-0.2,0-0.4-0.1-0.6-0.2    c-0.4-0.3-0.6-0.9-0.2-1.4c0.4-0.5,0.8-1.1,1.2-1.6c0.3-0.4,1-0.5,1.4-0.2c0.4,0.3,0.5,1,0.2,1.4c-0.4,0.5-0.8,1.1-1.2,1.6    C29.2,45.1,28.9,45.2,28.6,45.2z M32.3,40.5c-0.2,0-0.4-0.1-0.6-0.2c-0.4-0.4-0.5-1-0.1-1.4c0.4-0.5,0.9-1,1.3-1.5    c0.4-0.4,1-0.5,1.4-0.1s0.5,1,0.1,1.4c-0.4,0.5-0.9,1-1.3,1.5C32.8,40.4,32.5,40.5,32.3,40.5z M36.2,36c-0.2,0-0.5-0.1-0.7-0.3    c-0.4-0.4-0.4-1,0-1.4c0.5-0.5,0.9-1,1.4-1.5c0.4-0.4,1-0.4,1.4,0c0.4,0.4,0.4,1,0,1.4c-0.5,0.5-0.9,0.9-1.4,1.4    C36.8,35.9,36.5,36,36.2,36z M40.5,31.8c-0.3,0-0.5-0.1-0.7-0.3c-0.4-0.4-0.3-1,0.1-1.4c0.5-0.5,1-0.9,1.5-1.4    c0.4-0.4,1-0.3,1.4,0.1c0.4,0.4,0.3,1-0.1,1.4c-0.5,0.4-1,0.9-1.5,1.3C41,31.7,40.7,31.8,40.5,31.8z M45.1,27.9    c-0.3,0-0.6-0.1-0.8-0.4c-0.3-0.4-0.3-1.1,0.2-1.4l1.6-1.3c0.4-0.3,1.1-0.3,1.4,0.2c0.3,0.4,0.3,1.1-0.2,1.4l-1.6,1.3    C45.5,27.8,45.3,27.9,45.1,27.9z"/></g></g><g><g><rect x="63.7" y="35.8" transform="matrix(0.9774 0.2114 -0.2114 0.9774 13.9918 -18.8394)" fill="#E9ECEE" width="62.8" height="40.5"/></g></g><g><g><path fill="#C2CED8" d="M121.5,83.4c-0.1,0-0.1,0-0.2,0L59.9,70.1c-0.3-0.1-0.5-0.2-0.6-0.4c-0.1-0.2-0.2-0.5-0.1-0.8l8.6-39.6    c0.1-0.5,0.7-0.9,1.2-0.8l61.4,13.3c0.3,0.1,0.5,0.2,0.6,0.4c0.1,0.2,0.2,0.5,0.1,0.8l-8.6,39.6C122.4,83.1,122,83.4,121.5,83.4z     M61.3,68.4l59.4,12.9l8.1-37.6L69.5,30.8L61.3,68.4z"/></g></g><g><g><path fill="#C2CED8" d="M118.1,98.4c-0.1,0-0.1,0-0.2,0L56.5,85.1c-0.5-0.1-0.9-0.6-0.8-1.2c0.1-0.5,0.7-0.9,1.2-0.8l61.4,13.3    c0.5,0.1,0.9,0.6,0.8,1.2C118.9,98.1,118.5,98.4,118.1,98.4z"/></g></g><g><g><path fill="#C2CED8" d="M115.4,111.7c-0.1,0-0.1,0-0.2,0L53.9,98.4c-0.5-0.1-0.9-0.6-0.8-1.2c0.1-0.5,0.7-0.9,1.2-0.8l61.4,13.3    c0.5,0.1,0.9,0.6,0.8,1.2C116.3,111.4,115.9,111.7,115.4,111.7z"/></g></g></svg>