<svg xmlns="http://www.w3.org/2000/svg" xmlns:xlink="http://www.w3.org/1999/xlink" version="1.1" id="Layer_2" x="0px" y="0px" viewBox="0 0 200 200" enable-background="new 0 0 200 200" xml:space="preserve"><g><polygon fill="#E9ECEE" points="39.7,67.1 48.3,98.3 118.5,169.8 121.6,169.8 155,136.4 161.5,146.5 160.7,151.7 93.5,196.4    90.9,193.8 38.9,116.7 36.6,111.3 33.8,71.8  "/></g><g><path fill="#C3CFD8" d="M120.1,171.4c-0.8,0-1.6-0.3-2.2-0.9l-67.4-67.4c-1-0.9-3-2.9-3.9-7.2l-9.1-33.4c-0.1-0.2-0.9-4.4,1.8-7.2   l14.9-14.9c0.4-0.4,1-0.4,1.4,0s0.4,1,0,1.4L40.7,56.7c-2,2-1.3,5.2-1.3,5.3l9.1,33.4c0.8,3.8,2.5,5.4,3.4,6.3l0.2,0.2l67.2,67.2   c0.4,0.4,1.2,0.4,1.6,0l57-57c0.4-0.4,0.4-1.2,0-1.6l-68.8-68.8c-0.7-0.7-1.3-1.1-4.9-2l-33.6-8.2c0,0,0,0,0,0c0,0-2.3-0.4-4.3,0.4   c-0.5,0.2-1.1-0.1-1.3-0.6c-0.2-0.5,0.1-1.1,0.6-1.3c2.6-1,5.3-0.5,5.4-0.4l33.7,8.2c3.7,0.9,4.8,1.5,5.8,2.5l68.8,68.8   c1.2,1.2,1.2,3.2,0,4.5l-57,57C121.7,171.1,120.9,171.4,120.1,171.4z"/></g><g><path fill="#C3CFD8" d="M93.8,197.4c-0.2,0-0.4,0-0.6-0.1c-0.8-0.2-1.5-0.6-2-1.3l-53.3-79c-0.8-1.1-2.4-3.4-2.5-7.8l-2.5-34.5   c0-0.4-0.2-4.2,2.1-5.7c0.5-0.3,1.1-0.1,1.4,0.3c0.3,0.5,0.1,1.1-0.3,1.4c-1.1,0.7-1.2,3-1.1,3.8l2.5,34.6c0.1,3.8,1.4,5.8,2.1,6.8   l0.2,0.3l53.2,78.7c0.2,0.3,0.4,0.4,0.7,0.5c0.3,0.1,0.6,0,0.9-0.2l66.8-45.1c0.5-0.4,0.7-1.1,0.3-1.6l-5.2-7.9   c-0.3-0.5-0.2-1.1,0.3-1.4c0.5-0.3,1.1-0.2,1.4,0.3l5.2,7.9c1,1.4,0.6,3.4-0.9,4.4l-66.8,45.1C95.1,197.2,94.5,197.4,93.8,197.4z"/></g><g><path fill="none" stroke="#C3CFD8" stroke-width="2" stroke-miterlimit="10" d="M65.7,56.9"/></g><g><path fill="#C3CFD8" d="M69.6,69.7c-2.3,0-4.4-0.9-6-2.5c-1.4-1.4-2.3-3.3-2.5-5.3c0-0.5,0.4-1,0.9-1.1c0.5,0,1,0.4,1.1,0.9   c0.1,1.5,0.8,3,1.9,4c1.2,1.2,2.9,1.9,4.6,1.9s3.4-0.7,4.6-1.9c1.9-1.9,2.4-4.7,1.4-7.2c-0.2-0.5,0-1.1,0.5-1.3   c0.5-0.2,1.1,0,1.3,0.5c1.4,3.2,0.7,6.9-1.8,9.4C74,68.8,71.9,69.7,69.6,69.7z"/></g><g><path fill="#C3CFD8" d="M69.7,77.2c-4.4,0-8.5-1.7-11.6-4.8c-6.4-6.4-6.4-16.7,0-23.1c0.4-0.4,1-0.4,1.4,0s0.4,1,0,1.4   C54,56.3,54,65.4,59.6,71c2.7,2.7,6.3,4.2,10.1,4.2c3.8,0,7.4-1.5,10.1-4.2c5.6-5.6,5.6-14.7,0-20.3c-2-2-4.6-3.4-7.4-3.9   c-0.5-0.1-0.9-0.6-0.8-1.2c0.1-0.5,0.6-0.9,1.2-0.8c3.2,0.6,6.1,2.2,8.4,4.5c6.4,6.4,6.4,16.7,0,23.1   C78.2,75.5,74.1,77.2,69.7,77.2z"/></g><g><g><path fill="#C3CFD8" d="M69.7,64.9c-1.9,0-3.5-1.3-3.9-3.1c-8.9-36.6-26-38.5-27.3-38.6h-0.1c-0.6,0-1-0.4-1-1    c0-0.3,0.1-0.6,0.4-0.8c0.1-0.1,0.2-0.1,0.4-0.2c0.1,0,0.2,0,0.2,0c0.4,0,0.9,0,1.9,0.2c2.5,0.5,7.4,2.3,12.8,8.1    c6.4,7,11.4,17.7,14.8,31.8c0.2,0.9,1,1.6,2,1.6c0.2,0,0.3,0,0.5-0.1c1.1-0.3,1.8-1.4,1.5-2.5C61.2,17.6,39.2,17.1,38.3,17.1    c-0.6,0-1-0.4-1-1s0.4-1,1-1h0c1,0,24.5,0.5,35.4,44.8c0.5,2.2-0.8,4.4-3,4.9C70.4,64.9,70,64.9,69.7,64.9z"/></g></g><g><g><path fill="#C3CFD8" d="M59.4,18.5c-0.4,0-0.7-0.2-0.9-0.5c-0.3-0.5-0.1-1.1,0.4-1.4c0.3-0.2,0.6-0.3,0.9-0.5    c0.5-0.3,1.1-0.1,1.3,0.4s0.1,1.1-0.4,1.3c-0.3,0.1-0.6,0.3-0.9,0.5C59.7,18.4,59.5,18.5,59.4,18.5z"/></g><g><path fill="#C3CFD8" d="M172.9,143.5c-0.2,0-0.4-0.1-0.6-0.2c-0.4-0.3-0.5-1-0.2-1.4c0.4-0.5,0.8-1.1,1.2-1.6    c0.3-0.5,0.9-0.6,1.4-0.2c0.5,0.3,0.6,0.9,0.2,1.4c-0.4,0.5-0.8,1.1-1.2,1.6C173.5,143.4,173.2,143.5,172.9,143.5z M176.4,138.5    c-0.2,0-0.4,0-0.5-0.2c-0.5-0.3-0.6-0.9-0.3-1.4c0.4-0.6,0.7-1.2,1-1.7c0.3-0.5,0.9-0.6,1.4-0.4c0.5,0.3,0.6,0.9,0.4,1.4    c-0.3,0.6-0.7,1.1-1.1,1.7C177,138.4,176.7,138.5,176.4,138.5z M179.3,133.3c-0.1,0-0.3,0-0.4-0.1c-0.5-0.2-0.7-0.8-0.5-1.3    c0.3-0.7,0.6-1.2,0.8-1.8c0.2-0.5,0.8-0.7,1.3-0.5c0.5,0.2,0.7,0.8,0.5,1.3c-0.2,0.6-0.5,1.2-0.9,1.9    C180,133.1,179.7,133.3,179.3,133.3z M181.6,127.7c-0.1,0-0.2,0-0.4-0.1c-0.5-0.2-0.8-0.8-0.6-1.3c0.2-0.6,0.5-1.2,0.7-1.9    c0.2-0.5,0.8-0.8,1.3-0.6c0.5,0.2,0.8,0.8,0.6,1.3c-0.2,0.6-0.5,1.3-0.7,1.9C182.4,127.4,182,127.7,181.6,127.7z M183.6,122    c-0.1,0-0.2,0-0.3,0c-0.5-0.2-0.8-0.7-0.7-1.3c0.2-0.6,0.4-1.3,0.6-1.9c0.2-0.5,0.7-0.8,1.2-0.7c0.5,0.2,0.8,0.7,0.7,1.2    c-0.2,0.7-0.4,1.3-0.6,2C184.4,121.7,184,122,183.6,122z M185.2,116.2c-0.1,0-0.2,0-0.2,0c-0.5-0.1-0.9-0.7-0.7-1.2    c0.2-0.6,0.3-1.3,0.4-1.9c0.1-0.5,0.6-0.9,1.2-0.8c0.5,0.1,0.9,0.6,0.8,1.2c-0.1,0.7-0.3,1.3-0.4,2    C186,115.8,185.6,116.2,185.2,116.2z M186.3,110.2c-0.1,0-0.1,0-0.2,0c-0.5-0.1-0.9-0.6-0.8-1.1c0.1-0.7,0.2-1.3,0.3-2    c0.1-0.5,0.6-0.9,1.1-0.9c0.5,0.1,0.9,0.6,0.9,1.1c-0.1,0.7-0.2,1.3-0.3,2C187.2,109.9,186.8,110.2,186.3,110.2z M187.1,104.3    C187.1,104.3,187.1,104.3,187.1,104.3c-0.6-0.1-1-0.5-1-1.1c0.1-0.7,0.1-1.3,0.2-2c0-0.5,0.5-1,1.1-0.9c0.6,0,1,0.5,0.9,1.1    c0,0.7-0.1,1.4-0.2,2C188.1,103.9,187.6,104.3,187.1,104.3z M187.5,98.2C187.5,98.2,187.5,98.2,187.5,98.2c-0.6,0-1-0.5-1-1    c0-0.7,0-1.3,0-2c0-0.6,0.4-1,1-1c0,0,0,0,0,0c0.6,0,1,0.5,1,1c0,0.7,0,1.4,0,2C188.5,97.8,188,98.2,187.5,98.2z M187.4,92.2    c-0.5,0-1-0.4-1-1c0-0.7-0.1-1.3-0.1-2c0-0.6,0.4-1,0.9-1.1c0.5,0,1,0.4,1.1,0.9c0,0.7,0.1,1.4,0.1,2    C188.4,91.7,188,92.2,187.4,92.2C187.4,92.2,187.4,92.2,187.4,92.2z M187,86.2c-0.5,0-0.9-0.4-1-0.9c-0.1-0.7-0.2-1.3-0.2-2    c-0.1-0.5,0.3-1.1,0.9-1.1c0.5-0.1,1.1,0.3,1.1,0.9c0.1,0.7,0.2,1.3,0.2,2c0.1,0.5-0.3,1-0.9,1.1C187,86.2,187,86.2,187,86.2z     M186.1,80.2c-0.5,0-0.9-0.3-1-0.8c-0.1-0.7-0.2-1.3-0.4-2c-0.1-0.5,0.2-1.1,0.8-1.2c0.5-0.1,1.1,0.2,1.2,0.8    c0.1,0.7,0.3,1.3,0.4,2c0.1,0.5-0.3,1.1-0.8,1.2C186.2,80.2,186.1,80.2,186.1,80.2z M184.8,74.3c-0.4,0-0.9-0.3-1-0.8    c-0.2-0.6-0.3-1.3-0.5-1.9c-0.1-0.5,0.2-1.1,0.7-1.2c0.5-0.1,1.1,0.2,1.2,0.7c0.2,0.7,0.4,1.3,0.5,2c0.1,0.5-0.2,1.1-0.7,1.2    C185,74.3,184.9,74.3,184.8,74.3z M183.1,68.5c-0.4,0-0.8-0.3-1-0.7c-0.2-0.6-0.4-1.3-0.6-1.9c-0.2-0.5,0.1-1.1,0.6-1.3    c0.5-0.2,1.1,0.1,1.3,0.6c0.2,0.6,0.4,1.3,0.7,1.9c0.2,0.5-0.1,1.1-0.6,1.3C183.3,68.5,183.2,68.5,183.1,68.5z M181,62.9    c-0.4,0-0.8-0.2-0.9-0.6c-0.2-0.6-0.5-1.2-0.8-1.8c-0.2-0.5,0-1.1,0.5-1.3c0.5-0.2,1.1,0,1.3,0.5c0.3,0.6,0.5,1.2,0.8,1.9    c0.2,0.5,0,1.1-0.5,1.3C181.3,62.9,181.2,62.9,181,62.9z M178.6,57.4c-0.4,0-0.7-0.2-0.9-0.6c-0.3-0.6-0.6-1.2-0.9-1.8    c-0.3-0.5-0.1-1.1,0.4-1.3c0.5-0.3,1.1-0.1,1.3,0.4c0.3,0.6,0.6,1.2,0.9,1.8c0.2,0.5,0,1.1-0.5,1.3    C178.9,57.4,178.7,57.4,178.6,57.4z M175.7,52.1c-0.3,0-0.7-0.2-0.9-0.5c-0.3-0.6-0.7-1.1-1-1.7c-0.3-0.5-0.1-1.1,0.3-1.4    c0.5-0.3,1.1-0.1,1.4,0.3c0.4,0.6,0.7,1.2,1,1.7c0.3,0.5,0.1,1.1-0.4,1.4C176.1,52,175.9,52.1,175.7,52.1z M172.5,47    c-0.3,0-0.6-0.2-0.8-0.4c-0.4-0.5-0.7-1.1-1.1-1.6c-0.3-0.5-0.2-1.1,0.2-1.4c0.5-0.3,1.1-0.2,1.4,0.2c0.4,0.6,0.8,1.1,1.2,1.7    c0.3,0.5,0.2,1.1-0.3,1.4C172.9,46.9,172.7,47,172.5,47z M169,42.1c-0.3,0-0.6-0.1-0.8-0.4c-0.4-0.5-0.8-1-1.2-1.5    c-0.3-0.4-0.3-1.1,0.1-1.4c0.4-0.3,1.1-0.3,1.4,0.1c0.4,0.5,0.9,1.1,1.3,1.6c0.3,0.4,0.3,1.1-0.2,1.4    C169.4,42,169.2,42.1,169,42.1z M165.1,37.5c-0.3,0-0.5-0.1-0.7-0.3c-0.4-0.5-0.9-1-1.3-1.5c-0.4-0.4-0.4-1,0-1.4    c0.4-0.4,1-0.4,1.4,0c0.5,0.5,0.9,1,1.4,1.5c0.4,0.4,0.3,1-0.1,1.4C165.6,37.4,165.3,37.5,165.1,37.5z M160.9,33.1    c-0.3,0-0.5-0.1-0.7-0.3c-0.5-0.5-1-0.9-1.4-1.4c-0.4-0.4-0.4-1-0.1-1.4c0.4-0.4,1-0.4,1.4-0.1c0.5,0.5,1,0.9,1.5,1.4    c0.4,0.4,0.4,1,0,1.4C161.4,33,161.2,33.1,160.9,33.1z M156.4,29.1c-0.2,0-0.5-0.1-0.6-0.2c-0.5-0.4-1-0.8-1.5-1.3    c-0.4-0.3-0.5-1-0.2-1.4c0.3-0.4,1-0.5,1.4-0.2c0.5,0.4,1.1,0.9,1.6,1.3c0.4,0.4,0.5,1,0.1,1.4C157,29,156.7,29.1,156.4,29.1z     M151.7,25.4c-0.2,0-0.4-0.1-0.6-0.2c-0.5-0.4-1.1-0.8-1.6-1.2c-0.5-0.3-0.6-0.9-0.2-1.4c0.3-0.5,0.9-0.6,1.4-0.2    c0.6,0.4,1.1,0.8,1.7,1.2c0.4,0.3,0.5,1,0.2,1.4C152.3,25.2,152,25.4,151.7,25.4z M146.7,22c-0.2,0-0.4,0-0.5-0.2    c-0.6-0.4-1.1-0.7-1.7-1c-0.5-0.3-0.6-0.9-0.3-1.4c0.3-0.5,0.9-0.6,1.4-0.3c0.6,0.3,1.2,0.7,1.7,1.1c0.5,0.3,0.6,0.9,0.3,1.4    C147.4,21.8,147,22,146.7,22z M141.5,18.9c-0.2,0-0.3,0-0.5-0.1c-0.6-0.3-1.2-0.6-1.8-0.9c-0.5-0.3-0.7-0.9-0.4-1.3    c0.3-0.5,0.9-0.7,1.3-0.4c0.6,0.3,1.2,0.6,1.8,0.9c0.5,0.3,0.7,0.9,0.4,1.4C142.2,18.7,141.9,18.9,141.5,18.9z M63.9,16.2    c-0.4,0-0.7-0.2-0.9-0.6c-0.2-0.5,0-1.1,0.5-1.3c0.6-0.3,1.2-0.6,1.9-0.8c0.5-0.2,1.1,0,1.3,0.5c0.2,0.5,0,1.1-0.5,1.3    c-0.6,0.3-1.2,0.5-1.8,0.8C64.1,16.2,64,16.2,63.9,16.2z M136.1,16.2c-0.1,0-0.3,0-0.4-0.1c-0.6-0.3-1.2-0.5-1.8-0.8    c-0.5-0.2-0.7-0.8-0.5-1.3c0.2-0.5,0.8-0.7,1.3-0.5c0.6,0.3,1.2,0.5,1.9,0.8c0.5,0.2,0.7,0.8,0.5,1.3    C136.8,16,136.5,16.2,136.1,16.2z M69.4,13.9c-0.4,0-0.8-0.2-0.9-0.7c-0.2-0.5,0.1-1.1,0.6-1.3c0.6-0.2,1.3-0.5,1.9-0.7    c0.5-0.2,1.1,0.1,1.3,0.6c0.2,0.5-0.1,1.1-0.6,1.3c-0.6,0.2-1.3,0.4-1.9,0.7C69.7,13.9,69.6,13.9,69.4,13.9z M130.5,13.9    c-0.1,0-0.2,0-0.3-0.1c-0.6-0.2-1.2-0.5-1.9-0.7c-0.5-0.2-0.8-0.7-0.6-1.3s0.7-0.8,1.3-0.6c0.6,0.2,1.3,0.5,1.9,0.7    c0.5,0.2,0.8,0.8,0.6,1.3C131.3,13.7,130.9,13.9,130.5,13.9z M75.2,12c-0.4,0-0.8-0.3-1-0.7c-0.2-0.5,0.1-1.1,0.7-1.2    c0.6-0.2,1.3-0.4,2-0.6c0.5-0.1,1.1,0.2,1.2,0.7c0.1,0.5-0.2,1.1-0.7,1.2c-0.6,0.2-1.3,0.4-1.9,0.5C75.4,12,75.3,12,75.2,12z     M124.8,12c-0.1,0-0.2,0-0.3,0c-0.6-0.2-1.3-0.4-1.9-0.5c-0.5-0.1-0.8-0.7-0.7-1.2c0.1-0.5,0.7-0.8,1.2-0.7c0.7,0.2,1.3,0.4,2,0.6    c0.5,0.2,0.8,0.7,0.7,1.2C125.6,11.7,125.2,12,124.8,12z M81,10.5c-0.5,0-0.9-0.3-1-0.8c-0.1-0.5,0.2-1.1,0.8-1.2    c0.7-0.1,1.3-0.3,2-0.4C83.3,8,83.9,8.4,84,8.9c0.1,0.5-0.2,1.1-0.8,1.2c-0.7,0.1-1.3,0.3-1.9,0.4C81.2,10.5,81.1,10.5,81,10.5z     M118.9,10.5c-0.1,0-0.1,0-0.2,0c-0.6-0.1-1.3-0.3-1.9-0.4c-0.5-0.1-0.9-0.6-0.8-1.2c0.1-0.5,0.6-0.9,1.2-0.8    c0.7,0.1,1.3,0.3,2,0.4c0.5,0.1,0.9,0.7,0.8,1.2C119.8,10.2,119.4,10.5,118.9,10.5z M86.9,9.4c-0.5,0-0.9-0.4-1-0.9    c-0.1-0.5,0.3-1.1,0.8-1.1c0.7-0.1,1.3-0.2,2-0.3c0.6-0.1,1,0.3,1.1,0.9c0.1,0.5-0.3,1-0.9,1.1c-0.7,0.1-1.3,0.2-2,0.3    C87,9.4,87,9.4,86.9,9.4z M113,9.4c0,0-0.1,0-0.1,0c-0.7-0.1-1.3-0.2-2-0.3c-0.5-0.1-0.9-0.6-0.9-1.1s0.6-0.9,1.1-0.9    c0.7,0.1,1.3,0.2,2,0.3c0.5,0.1,0.9,0.6,0.8,1.1C113.9,9.1,113.5,9.4,113,9.4z M92.9,8.7c-0.5,0-1-0.4-1-0.9c0-0.6,0.4-1,0.9-1.1    c0.7-0.1,1.4-0.1,2-0.1c0.5,0,1,0.4,1.1,0.9s-0.4,1-0.9,1.1C94.3,8.6,93.7,8.7,92.9,8.7C93,8.7,93,8.7,92.9,8.7z M107,8.7    C107,8.7,106.9,8.7,107,8.7c-0.7-0.1-1.4-0.1-2.1-0.1c-0.6,0-1-0.5-0.9-1.1c0-0.6,0.5-1,1.1-0.9c0.7,0,1.4,0.1,2,0.1    c0.5,0,1,0.5,0.9,1.1C107.9,8.3,107.5,8.7,107,8.7z M99,8.5c-0.5,0-1-0.4-1-1c0-0.6,0.4-1,1-1c0.4,0,0.7,0,1.1,0l1,0    c0.6,0,1,0.5,1,1c0,0.5-0.5,1-1,1c0,0,0,0,0,0l-1,0C99.7,8.5,99.3,8.5,99,8.5C99,8.5,99,8.5,99,8.5z"/></g><g><path fill="#C3CFD8" d="M169.8,147.5c-0.2,0-0.5-0.1-0.6-0.2c-0.4-0.4-0.5-1-0.1-1.4l0.6-0.8c0.4-0.4,1-0.5,1.4-0.1    c0.4,0.4,0.5,1,0.1,1.4l-0.6,0.8C170.3,147.4,170.1,147.5,169.8,147.5z"/></g></g><g><g><path fill="#C3CFD8" d="M72.8,179.1c-0.1,0-0.2,0-0.3,0c-0.3-0.1-0.6-0.2-1-0.3c-0.5-0.2-0.8-0.7-0.6-1.3c0.2-0.5,0.7-0.8,1.3-0.6    c0.3,0.1,0.6,0.2,0.9,0.3c0.5,0.2,0.8,0.7,0.6,1.3C73.6,178.9,73.2,179.1,72.8,179.1z"/></g><g><path fill="#C3CFD8" d="M68,177.4c-0.1,0-0.2,0-0.4-0.1c-0.6-0.2-1.3-0.5-1.9-0.8c-0.5-0.2-0.7-0.8-0.5-1.3    c0.2-0.5,0.8-0.7,1.3-0.5c0.6,0.3,1.2,0.5,1.8,0.8c0.5,0.2,0.8,0.8,0.6,1.3C68.8,177.2,68.4,177.4,68,177.4z M62.5,175    c-0.1,0-0.3,0-0.4-0.1c-0.6-0.3-1.2-0.6-1.8-0.9c-0.5-0.2-0.7-0.9-0.4-1.3s0.9-0.7,1.3-0.4c0.6,0.3,1.2,0.6,1.8,0.9    c0.5,0.2,0.7,0.8,0.5,1.3C63.2,174.8,62.8,175,62.5,175z M57.1,172.2c-0.2,0-0.3,0-0.5-0.1c-0.6-0.3-1.2-0.7-1.8-1    c-0.5-0.3-0.6-0.9-0.3-1.4s0.9-0.6,1.4-0.3c0.6,0.3,1.1,0.7,1.7,1c0.5,0.3,0.7,0.9,0.4,1.4C57.8,172.1,57.4,172.2,57.1,172.2z     M51.9,169.1c-0.2,0-0.4-0.1-0.5-0.2c-0.6-0.4-1.1-0.8-1.7-1.1c-0.5-0.3-0.6-0.9-0.3-1.4c0.3-0.5,0.9-0.6,1.4-0.3    c0.5,0.4,1.1,0.8,1.7,1.1c0.5,0.3,0.6,0.9,0.3,1.4C52.6,168.9,52.2,169.1,51.9,169.1z M47,165.6c-0.2,0-0.4-0.1-0.6-0.2    c-0.5-0.4-1.1-0.8-1.6-1.3c-0.4-0.3-0.5-1-0.2-1.4c0.3-0.4,1-0.5,1.4-0.2c0.5,0.4,1,0.8,1.6,1.2c0.4,0.3,0.5,1,0.2,1.4    C47.6,165.4,47.3,165.6,47,165.6z M42.3,161.8c-0.2,0-0.5-0.1-0.7-0.2c-0.5-0.4-1-0.9-1.5-1.4c-0.4-0.4-0.4-1-0.1-1.4    c0.4-0.4,1-0.4,1.4-0.1c0.5,0.5,1,0.9,1.5,1.3c0.4,0.4,0.5,1,0.1,1.4C42.9,161.6,42.6,161.8,42.3,161.8z M37.9,157.6    c-0.3,0-0.5-0.1-0.7-0.3c-0.5-0.5-1-1-1.4-1.5c-0.4-0.4-0.4-1,0-1.4c0.4-0.4,1-0.4,1.4,0c0.5,0.5,0.9,1,1.4,1.4    c0.4,0.4,0.4,1,0,1.4C38.4,157.5,38.2,157.6,37.9,157.6z M33.8,153.2c-0.3,0-0.6-0.1-0.8-0.3c-0.4-0.5-0.9-1-1.3-1.6    c-0.4-0.4-0.3-1.1,0.1-1.4c0.4-0.3,1.1-0.3,1.4,0.1c0.4,0.5,0.9,1,1.3,1.5c0.4,0.4,0.3,1-0.1,1.4C34.3,153.1,34,153.2,33.8,153.2z     M30,148.5c-0.3,0-0.6-0.1-0.8-0.4c-0.4-0.5-0.8-1.1-1.2-1.6c-0.3-0.4-0.2-1.1,0.2-1.4c0.4-0.3,1.1-0.2,1.4,0.2    c0.4,0.5,0.8,1.1,1.2,1.6c0.3,0.4,0.2,1.1-0.2,1.4C30.4,148.4,30.2,148.5,30,148.5z M26.5,143.5c-0.3,0-0.6-0.2-0.8-0.5    c-0.4-0.6-0.7-1.1-1.1-1.7c-0.3-0.5-0.1-1.1,0.3-1.4c0.5-0.3,1.1-0.1,1.4,0.3c0.3,0.6,0.7,1.1,1.1,1.7c0.3,0.5,0.2,1.1-0.3,1.4    C26.9,143.5,26.7,143.5,26.5,143.5z M23.4,138.3c-0.4,0-0.7-0.2-0.9-0.5c-0.3-0.6-0.7-1.2-1-1.8c-0.3-0.5-0.1-1.1,0.4-1.4    c0.5-0.3,1.1-0.1,1.4,0.4c0.3,0.6,0.6,1.2,0.9,1.8c0.3,0.5,0.1,1.1-0.4,1.4C23.8,138.3,23.6,138.3,23.4,138.3z M20.7,133    c-0.4,0-0.7-0.2-0.9-0.6c-0.3-0.6-0.6-1.2-0.8-1.9c-0.2-0.5,0-1.1,0.5-1.3c0.5-0.2,1.1,0,1.3,0.5c0.3,0.6,0.5,1.2,0.8,1.8    c0.2,0.5,0,1.1-0.5,1.3C21,132.9,20.8,133,20.7,133z M18.3,127.4c-0.4,0-0.8-0.2-0.9-0.6c-0.2-0.6-0.5-1.3-0.7-1.9    c-0.2-0.5,0.1-1.1,0.6-1.3s1.1,0.1,1.3,0.6c0.2,0.6,0.5,1.2,0.7,1.9c0.2,0.5-0.1,1.1-0.6,1.3C18.6,127.4,18.4,127.4,18.3,127.4z     M16.3,121.7c-0.4,0-0.8-0.3-1-0.7c-0.2-0.6-0.4-1.3-0.6-1.9c-0.1-0.5,0.2-1.1,0.7-1.2c0.5-0.1,1.1,0.2,1.2,0.7    c0.2,0.6,0.4,1.3,0.6,1.9c0.2,0.5-0.1,1.1-0.7,1.2C16.5,121.7,16.4,121.7,16.3,121.7z M14.8,115.9c-0.5,0-0.9-0.3-1-0.8    c-0.2-0.7-0.3-1.3-0.4-2c-0.1-0.5,0.2-1.1,0.8-1.2c0.5-0.1,1.1,0.2,1.2,0.8c0.1,0.7,0.3,1.3,0.4,1.9c0.1,0.5-0.2,1.1-0.7,1.2    C14.9,115.9,14.8,115.9,14.8,115.9z M13.6,109.9c-0.5,0-0.9-0.3-1-0.8c-0.1-0.7-0.2-1.3-0.3-2c-0.1-0.5,0.3-1.1,0.9-1.1    c0.5-0.1,1.1,0.3,1.1,0.9c0.1,0.7,0.2,1.3,0.3,2c0.1,0.5-0.3,1.1-0.8,1.1C13.7,109.9,13.7,109.9,13.6,109.9z M12.9,103.9    c-0.5,0-0.9-0.4-1-0.9c-0.1-0.7-0.1-1.4-0.2-2c0-0.6,0.4-1,0.9-1.1c0.6,0,1,0.4,1.1,0.9c0,0.7,0.1,1.3,0.2,2    C13.9,103.4,13.5,103.9,12.9,103.9C12.9,103.9,12.9,103.9,12.9,103.9z M12.5,97.9c-0.5,0-1-0.4-1-1c0-0.6,0-1.3,0-2l1-0.1h1    c0,0.7,0,1.4,0,2C13.5,97.4,13.1,97.9,12.5,97.9C12.5,97.9,12.5,97.9,12.5,97.9z M12.6,91.9C12.6,91.9,12.6,91.9,12.6,91.9    c-0.6,0-1-0.5-1-1c0-0.7,0.1-1.4,0.1-2c0-0.6,0.5-1,1.1-0.9c0.6,0,1,0.5,0.9,1.1c0,0.7-0.1,1.3-0.1,2    C13.6,91.4,13.1,91.9,12.6,91.9z M13.1,85.8c0,0-0.1,0-0.1,0c-0.5-0.1-0.9-0.6-0.9-1.1c0.1-0.7,0.2-1.4,0.3-2    c0.1-0.5,0.6-0.9,1.1-0.9c0.5,0.1,0.9,0.6,0.9,1.1c-0.1,0.7-0.2,1.3-0.3,2C14,85.4,13.6,85.8,13.1,85.8z M14,79.8    c-0.1,0-0.1,0-0.2,0c-0.5-0.1-0.9-0.6-0.8-1.2c0.1-0.7,0.3-1.3,0.4-2c0.1-0.5,0.6-0.9,1.2-0.8c0.5,0.1,0.9,0.6,0.8,1.2    c-0.1,0.7-0.3,1.3-0.4,2C14.9,79.5,14.5,79.8,14,79.8z M15.3,73.9c-0.1,0-0.2,0-0.3,0c-0.5-0.1-0.9-0.7-0.7-1.2    c0.2-0.7,0.4-1.3,0.5-2c0.2-0.5,0.7-0.8,1.2-0.7c0.5,0.2,0.8,0.7,0.7,1.2c-0.2,0.6-0.4,1.3-0.5,1.9C16.1,73.6,15.7,73.9,15.3,73.9    z M17,68.1c-0.1,0-0.2,0-0.3-0.1c-0.5-0.2-0.8-0.7-0.6-1.3c0.2-0.6,0.4-1.3,0.7-1.9c0.2-0.5,0.8-0.8,1.3-0.6    c0.5,0.2,0.8,0.8,0.6,1.3c-0.2,0.6-0.4,1.3-0.7,1.9C17.8,67.9,17.4,68.1,17,68.1z M19.1,62.5c-0.1,0-0.3,0-0.4-0.1    c-0.5-0.2-0.8-0.8-0.5-1.3c0.3-0.6,0.5-1.3,0.8-1.9c0.2-0.5,0.8-0.7,1.3-0.5c0.5,0.2,0.7,0.8,0.5,1.3c-0.3,0.6-0.5,1.2-0.8,1.8    C19.9,62.2,19.5,62.5,19.1,62.5z M21.7,57c-0.1,0-0.3,0-0.4-0.1c-0.5-0.2-0.7-0.8-0.4-1.3c0.3-0.6,0.6-1.2,0.9-1.8    c0.3-0.5,0.9-0.7,1.4-0.4c0.5,0.3,0.7,0.9,0.4,1.4c-0.3,0.6-0.6,1.2-0.9,1.8C22.4,56.8,22,57,21.7,57z M24.5,51.6    c-0.2,0-0.3,0-0.5-0.1c-0.5-0.3-0.6-0.9-0.4-1.4c0.3-0.6,0.7-1.2,1.1-1.7c0.3-0.5,0.9-0.6,1.4-0.3c0.5,0.3,0.6,0.9,0.3,1.4    c-0.4,0.6-0.7,1.1-1,1.7C25.2,51.5,24.9,51.6,24.5,51.6z M27.8,46.5c-0.2,0-0.4-0.1-0.6-0.2C26.8,46,26.7,45.4,27,45    c0.4-0.6,0.8-1.1,1.2-1.7c0.3-0.4,0.9-0.5,1.4-0.2c0.4,0.3,0.6,0.9,0.2,1.4c-0.4,0.5-0.8,1.1-1.1,1.6    C28.4,46.4,28.1,46.5,27.8,46.5z M31.4,41.7c-0.2,0-0.4-0.1-0.6-0.2c-0.4-0.3-0.5-1-0.2-1.4c0.4-0.5,0.9-1.1,1.3-1.6    c0.4-0.4,1-0.5,1.4-0.1c0.4,0.4,0.5,1,0.1,1.4c-0.4,0.5-0.8,1-1.3,1.5C32,41.5,31.7,41.7,31.4,41.7z M35.3,37.1    c-0.2,0-0.5-0.1-0.7-0.3c-0.4-0.4-0.4-1-0.1-1.4c0.5-0.5,0.9-1,1.4-1.5c0.4-0.4,1-0.4,1.4,0c0.4,0.4,0.4,1,0,1.4    c-0.5,0.5-0.9,1-1.4,1.5C35.8,37,35.6,37.1,35.3,37.1z"/></g><g><path fill="#C3CFD8" d="M39.6,32.7c-0.3,0-0.5-0.1-0.7-0.3c-0.4-0.4-0.4-1,0-1.4c0.2-0.2,0.5-0.5,0.7-0.7c0.4-0.4,1-0.4,1.4,0    c0.4,0.4,0.4,1,0,1.4c-0.2,0.2-0.5,0.4-0.7,0.7C40.1,32.6,39.8,32.7,39.6,32.7z"/></g></g><path fill="none" stroke="#C3CFD8" stroke-width="3" stroke-linecap="round" stroke-miterlimit="10" stroke-dasharray="2,5" d="  M320.7,0"/></svg>