<svg xmlns="http://www.w3.org/2000/svg" viewBox="0 0 40 40" enable-background="new 0 0 40 40"><style type="text/css">circle,ellipse,line,path,polygon,polyline,rect,text{fill:#c3cfd8 !important; }</style><g fill="#BBBDBF"><path d="M23.9 29h-7.7c-1.1 0-2.1-.8-2.4-1.9l-.8-2.9c-.1-.5.2-1.1.7-1.2.5-.1 1.1.2 1.2.7l.7 2.9c.1.2.2.3.4.3h7.7c.2 0 .4-.1.4-.3l.7-2.9c.1-.5.7-.9 1.2-.7.5.1.9.7.7 1.2l-.7 2.9c0 1.1-1 1.9-2.1 1.9zM39.4 12.9c-.5-.5-1.2-.9-1.9-.9h-1.2l.7-2.8v-.1c.1-.8-.2-1.7-.7-2.3-.4-.5-1-.7-1.6-.7h-1.4l.7-2.9V3c.1-.9-.2-1.8-.7-2.4-.4-.4-.9-.6-1.3-.6H8.1c-.5 0-1 .2-1.3.6-.5.6-.8 1.5-.7 2.4v.1L6.8 6H5.4c-.6 0-1.2.3-1.6.7-.5.6-.8 1.5-.7 2.3v.1l.7 2.9H2.6c-.7 0-1.4.3-1.9.9-.5.5-.7 1.3-.6 2l3.6 22.9C3.9 39 5 40 6.2 40h27.6c1.3 0 2.4-1 2.5-2.2l3.6-23c.2-.6-.1-1.4-.5-1.9zM8.1 2.8c0-.3.1-.6.2-.8h23.5c.1.1.2.4.2.8L31.2 6H8.8l-.7-3.2zM5.4 8h29.3c.1 0 .3.4.3.8l-.8 3.2H5.8l-.7-3.2c0-.4.2-.8.3-.8zm29 29.5c0 .3-.3.5-.5.5H6.2c-.3 0-.5-.2-.5-.5L2.1 14.6c0-.2.1-.4.1-.4.1-.1.2-.2.4-.2h34.8c.2 0 .3.1.4.2.1.1.2.2.1.4l-3.5 22.9z"/></g></svg>